<mxfile host="65bd71144e">
    <diagram id="GNKyi_tq2j710Kq2mpSj" name="Page-1">
        <mxGraphModel dx="1033" dy="695" grid="0" gridSize="10" guides="1" tooltips="1" connect="1" arrows="1" fold="1" page="0" pageScale="1" pageWidth="850" pageHeight="1100" math="0" shadow="0">
            <root>
                <mxCell id="0"/>
                <mxCell id="1" parent="0"/>
                <mxCell id="2" value="&lt;ul style=&quot;font-size: 16px&quot;&gt;&lt;li style=&quot;font-size: 16px&quot;&gt;A series of tasks&lt;/li&gt;&lt;li style=&quot;font-size: 16px&quot;&gt;has a specific timelline&lt;/li&gt;&lt;li style=&quot;font-size: 16px&quot;&gt;Well-done outcome (do things right)&lt;/li&gt;&lt;li style=&quot;font-size: 16px&quot;&gt;Short-term project team&lt;/li&gt;&lt;/ul&gt;" style="rounded=1;whiteSpace=wrap;html=1;strokeWidth=2;fillWeight=4;hachureGap=8;hachureAngle=45;fillColor=#fff2cc;sketch=1;strokeColor=#d6b656;align=left;fontSize=16;" vertex="1" parent="1">
                    <mxGeometry x="80" y="210" width="320" height="220" as="geometry"/>
                </mxCell>
                <mxCell id="3" value="&lt;ul style=&quot;font-size: 16px&quot;&gt;&lt;li style=&quot;font-size: 16px&quot;&gt;Physical good, software or service&lt;/li&gt;&lt;li style=&quot;font-size: 16px&quot;&gt;Permanent until retired&lt;/li&gt;&lt;li style=&quot;font-size: 16px&quot;&gt;Continually evolving&lt;/li&gt;&lt;li style=&quot;font-size: 16px&quot;&gt;Long-term product team&lt;/li&gt;&lt;/ul&gt;" style="rounded=1;whiteSpace=wrap;html=1;strokeWidth=2;fillWeight=4;hachureGap=8;hachureAngle=45;fillColor=#d5e8d4;sketch=1;strokeColor=#82b366;align=left;fontSize=16;" vertex="1" parent="1">
                    <mxGeometry x="440" y="210" width="320" height="220" as="geometry"/>
                </mxCell>
                <mxCell id="4" value="Projects" style="text;strokeColor=none;fillColor=none;html=1;fontSize=24;fontStyle=1;verticalAlign=middle;align=center;" vertex="1" parent="1">
                    <mxGeometry x="80" y="160" width="100" height="40" as="geometry"/>
                </mxCell>
                <mxCell id="5" value="Products" style="text;strokeColor=none;fillColor=none;html=1;fontSize=24;fontStyle=1;verticalAlign=middle;align=center;" vertex="1" parent="1">
                    <mxGeometry x="440" y="160" width="100" height="40" as="geometry"/>
                </mxCell>
            </root>
        </mxGraphModel>
    </diagram>
</mxfile>